<?xml version="1.0" encoding="iso-8859-1"?>
<!-- Uploaded to: SVG Repo, www.svgrepo.com, Generator: SVG Repo Mixer Tools -->
<svg fill="#000000" height="800px" width="800px" version="1.1" id="Capa_1" xmlns="http://www.w3.org/2000/svg" xmlns:xlink="http://www.w3.org/1999/xlink" 
	 viewBox="0 0 463.04 463.04" xml:space="preserve">
<g>
	<path d="M425.09,37.464L329.922,5.742c-11.391-3.796-23.253-5.722-35.259-5.722H231.54h-0.04h-63.123
		c-12.006,0-23.869,1.925-35.259,5.722L37.95,37.464C15.25,45.031,0,66.19,0,90.117v77.403c0,3.067,1.867,5.825,4.714,6.963
		L8,175.798v31.722c0,3.067,1.867,5.825,4.714,6.963L80,241.397V455.52c0,4.142,3.358,7.5,7.5,7.5h288.04c4.142,0,7.5-3.358,7.5-7.5
		V241.397l67.286-26.914c2.847-1.139,4.714-3.896,4.714-6.963v-31.722l3.286-1.314c2.847-1.139,4.714-3.896,4.714-6.963V90.117
		C463.04,66.19,447.79,45.031,425.09,37.464z M143.067,18.417c5.916-1.61,11.955-2.658,18.064-3.117l37.247,60.167
		c1.367,2.208,3.78,3.552,6.377,3.552h53.492c2.598,0,5.01-1.344,6.377-3.552l37.247-60.17c6.11,0.456,12.151,1.502,18.069,3.11
		L231.5,161.271L143.067,18.417z M231.5,15.02c0.007,0,0.013-0.001,0.02-0.001s0.013,0.001,0.02,0.001h52.861l-30.333,49h-45.136
		l-30.333-49H231.5z M23,202.442v-20.645l57,22.8v20.645L23,202.442z M95,448.02V236.192c0-0.008,0-0.016,0-0.024v-36.776
		c0-0.008,0-0.016,0-0.024v-71.848c0-4.142-3.358-7.5-7.5-7.5s-7.5,3.358-7.5,7.5v60.922l-65-26V90.117
		c0-17.46,11.129-32.9,27.693-38.422l85.658-28.552l9.196,14.854L48.069,67.822C38.458,71.026,32,79.985,32,90.117v55.738
		c0,4.142,3.358,7.5,7.5,7.5s7.5-3.358,7.5-7.5V90.117c0-3.665,2.335-6.905,5.812-8.064l92.848-30.949l79.463,128.364
		c1.367,2.208,3.78,3.552,6.377,3.552s5.01-1.344,6.377-3.552l79.47-128.375l92.881,30.96c3.477,1.159,5.812,4.399,5.812,8.064
		v55.738c0,4.142,3.358,7.5,7.5,7.5s7.5-3.358,7.5-7.5V90.117c0-10.131-6.458-19.091-16.069-22.294l-89.51-29.836l9.196-14.854
		l85.69,28.563c16.564,5.521,27.693,20.962,27.693,38.422v72.326l-65,26v-60.922c0-4.142-3.358-7.5-7.5-7.5s-7.5,3.358-7.5,7.5
		v71.848c0,0.008,0,0.016,0,0.024v36.776c0,0.008,0,0.016,0,0.024V448.02H95z M440.04,202.442l-57,22.8v-20.645l57-22.8V202.442z"/>
	<path d="M175.5,144.02h-48c-4.142,0-7.5,3.358-7.5,7.5v35.156c0,10.556,5.244,20.354,14.027,26.209l13.313,8.875
		c1.26,0.84,2.71,1.26,4.16,1.26s2.9-0.42,4.16-1.26l13.313-8.875C177.756,207.03,183,197.232,183,186.676V151.52
		C183,147.378,179.642,144.02,175.5,144.02z M168,186.676c0,5.529-2.747,10.662-7.347,13.729l-9.153,6.102l-9.153-6.102
		c-4.601-3.067-7.347-8.2-7.347-13.729V159.02h33V186.676z"/>
	<path d="M335.5,144.02h-48c-4.142,0-7.5,3.358-7.5,7.5v35.156c0,10.556,5.244,20.354,14.027,26.209l13.313,8.875
		c1.26,0.84,2.71,1.26,4.16,1.26s2.9-0.42,4.16-1.26l13.313-8.875C337.756,207.03,343,197.232,343,186.676V151.52
		C343,147.378,339.642,144.02,335.5,144.02z M328,186.676c0,5.529-2.747,10.662-7.347,13.729l-9.153,6.102l-9.153-6.102
		c-4.601-3.067-7.347-8.2-7.347-13.729V159.02h33V186.676z"/>
</g>
</svg>