<?xml version="1.0" encoding="UTF-8" standalone="no"?>
<svg width="800px" height="800px" viewBox="0 -7.72 127.24603 127.24603" xmlns="http://www.w3.org/2000/svg" xml:space="preserve" version="1.1">
  <path fill="#ffffff" stroke="#B8C0CC" stroke-width="1.5" d="m32 109c-1.4 0-2.5-1.1-2.5-2.5v-62.6l-7 5.9c-.1.1-.2.1-.2.2-1 .6-2.1 1-3.2 1-2 0-3.8-1-4.9-2.6l-10.7-16.1c-1.8-2.7-1-6.3 1.7-8.1l29.7-20.7c.2-.1.4-.3.7-.3.1 0 2.8-.9 6.6-1h3.1c.7 0 1.4.3 1.8.8.5.5.7 1.2.6 1.9 0 .1 0 .3-.1.4.2 7.5 8.1 14.5 16.5 14.5s16.3-7 16.5-14.5c0-.1 0-.3-.1-.4-.1-.7.2-1.4.6-1.9s1.1-.8 1.8-.8h6.1c2.4 0 4.3 1.1 4.5 1.2.1 0 .1.1.2.1l28.7 20.7c2.6 1.7 3.4 5.4 1.6 8.1l-10.7 15.2c-1 1.6-2.9 2.6-4.9 2.6-1.2 0-2.3-.3-3.2-1-.1 0-.1-.1-0.2-.2l-6.4-5.3-.2 62.9c0 1.4-1.1 2.5-2.5 2.5h-63.9z"/>
</svg>
