<?xml version="1.0" encoding="iso-8859-1"?>
<!-- Uploaded to: SVG Repo, www.svgrepo.com, Generator: SVG Repo Mixer Tools -->
<!DOCTYPE svg PUBLIC "-//W3C//DTD SVG 1.1//EN" "http://www.w3.org/Graphics/SVG/1.1/DTD/svg11.dtd">
<svg fill="#000000" version="1.1" id="Capa_1" xmlns="http://www.w3.org/2000/svg" xmlns:xlink="http://www.w3.org/1999/xlink" 
	 width="800px" height="800px" viewBox="0 0 301.439 301.439"
	 xml:space="preserve">
<g>
	<g>
		<path d="M150.72,0C67.611,0,0,67.61,0,150.725c0,83.109,67.61,150.715,150.72,150.715c83.113,0,150.719-67.605,150.719-150.715
			C301.439,67.61,233.833,0,150.72,0z M53.936,251.89c-26.67-25.522-43.331-61.428-43.331-101.165c0-0.839,0.047-1.657,0.062-2.48
			l39.027,13.438l27.307,70.392L53.936,251.89z M85.887,45.14l70.862-25.495l50.728,47.323l-41.684,59.68l-77.545-14.737
			L85.887,45.14z M244.304,254.888c-2.931,2.641-5.976,5.152-9.113,7.539l-58.254,24.887l-38.158-39.769l49.529-55.742l66.166,8.14
			L244.304,254.888z M262.966,66.942c17.502,23.385,27.879,52.393,27.879,83.782c0,0.839-0.052,1.673-0.067,2.506l-7.896-1.998
			l-23.83-67.205L262.966,66.942z"/>
	</g>
</g>
</svg>