<?xml version='1.0' encoding='iso-8859-1'?>
<!-- Uploaded to: SVG Repo, www.svgrepo.com, Generator: SVG Repo Mixer Tools -->
<svg fill="#000000" height="800px" width="800px" version="1.1" xmlns="http://www.w3.org/2000/svg" viewBox="0 0 264 264" xmlns:xlink="http://www.w3.org/1999/xlink" enable-background="new 0 0 264 264">
  <g>
    <path d="m252.333,33h-240c-6.6,0-12.333,5.4-12.333,12v58c0,6.6 5.733,12 12.333,12h20.667v99.5c0,9.113 7.388,16.5 16.5,16.5s16.5-7.387 16.5-16.5v-16.114l62.225-24.737 69.775,27.738v13.113c0,9.113 7.388,16.5 16.5,16.5 9.112,0 16.5-7.387 16.5-16.5v-99.5h21.333c6.6,0 11.667-5.4 11.667-12v-58c0-6.6-5.067-12-11.667-12zm-54.5,16h33l-16,50h-33l16-50zm-74,0h33l-16,50h-33l16-50zm-74.5,0h33l-16,50h-33l16-50zm16.667,131.091v-31.18l39.216,15.59-39.216,15.59zm85.234-15.59l46.766-18.592v37.184l-46.766-18.592zm46.766-36.886l-69.775,27.738-62.225-24.737v-15.616h132v12.615z"/>
  </g>
</svg>