<svg width="744" height="1692" viewBox="0 0 744 1692" fill="none" xmlns="http://www.w3.org/2000/svg">
<path d="M338.645 4.30024C321.276 8.07824 65.4151 74.4552 17.3311 343.437C-18.9639 546.472 1.32227 732.572 82.2103 854.363C155.018 986.308 199.508 1057.35 155.108 1206.25C114.744 1341.61 114.786 1446.51 199.708 1548C288.674 1656.25 373.572 1698.52 446.323 1690.04C567.577 1681.55 664.553 1607.08 688.75 1471.72C712.949 1341.44 680.574 1245.01 607.781 1151.98C534.985 1050.49 563.23 932.051 627.846 796.682C692.462 661.314 756.922 516.899 740.856 393.984C724.79 271.069 612.661 92.2663 528.665 49.7583C528.665 49.7583 456.219 14.3073 426.295 4.98225C403.793 -2.03075 363.294 -1.06176 338.645 4.30024Z" fill="#111111"/>
<path fill-rule="evenodd" clip-rule="evenodd" d="M120.502 206.655C120.514 235.802 148.596 259.458 183.173 259.448C217.75 259.438 245.813 235.766 245.801 206.619C245.789 177.472 217.707 153.816 183.13 153.826C148.553 153.836 120.49 177.508 120.502 206.655Z" fill="#F6F3EC"/>
<path fill-rule="evenodd" clip-rule="evenodd" d="M51.5891 392.736C51.6011 421.883 79.683 445.539 114.26 445.529C148.837 445.519 176.9 421.847 176.888 392.7C176.876 363.553 148.794 339.897 114.217 339.907C79.64 339.917 51.5771 363.589 51.5891 392.736Z" fill="#F6F3EC"/>
<path fill-rule="evenodd" clip-rule="evenodd" d="M67.561 578.148C67.573 607.295 95.6552 630.951 130.232 630.941C164.809 630.931 192.872 607.259 192.86 578.112C192.848 548.965 164.766 525.309 130.189 525.319C95.6122 525.329 67.549 549.001 67.561 578.148Z" fill="#F6F3EC"/>
<path fill-rule="evenodd" clip-rule="evenodd" d="M130.288 768.651C130.3 797.798 158.382 821.454 192.959 821.444C227.536 821.434 255.599 797.762 255.587 768.615C255.575 739.468 227.493 715.812 192.916 715.822C158.339 715.832 130.276 739.504 130.288 768.651Z" fill="#F6F3EC"/>
<path fill-rule="evenodd" clip-rule="evenodd" d="M475.252 206.552C475.264 235.699 503.346 259.355 537.923 259.345C572.5 259.335 600.563 235.663 600.551 206.516C600.539 177.369 572.457 153.713 537.88 153.723C503.303 153.733 475.24 177.405 475.252 206.552Z" fill="#F6F3EC"/>
<path fill-rule="evenodd" clip-rule="evenodd" d="M565.031 392.588C565.043 421.735 593.125 445.391 627.702 445.381C662.279 445.371 690.342 421.699 690.33 392.552C690.318 363.405 662.236 339.749 627.659 339.759C593.082 339.769 565.019 363.441 565.031 392.588Z" fill="#F6F3EC"/>
<path fill-rule="evenodd" clip-rule="evenodd" d="M528.729 578.015C528.741 607.162 556.823 630.818 591.4 630.808C625.977 630.798 654.04 607.126 654.028 577.979C654.016 548.832 625.934 525.176 591.357 525.186C556.78 525.196 528.717 548.868 528.729 578.015Z" fill="#F6F3EC"/>
<path fill-rule="evenodd" clip-rule="evenodd" d="M166.878 1291.28C166.89 1320.43 194.972 1344.09 229.549 1344.08C264.126 1344.07 292.189 1320.39 292.177 1291.25C292.165 1262.1 264.083 1238.44 229.506 1238.45C194.929 1238.46 166.866 1262.14 166.878 1291.28Z" fill="#F6F3EC"/>
<path fill-rule="evenodd" clip-rule="evenodd" d="M229.612 1499.1C229.624 1528.25 257.706 1551.9 292.283 1551.89C326.86 1551.88 354.923 1528.21 354.911 1499.06C354.899 1469.92 326.817 1446.26 292.24 1446.27C257.663 1446.28 229.6 1469.95 229.612 1499.1Z" fill="#F6F3EC"/>
<path fill-rule="evenodd" clip-rule="evenodd" d="M497.951 1260.52C497.963 1289.67 526.045 1313.33 560.622 1313.32C595.199 1313.31 623.262 1289.63 623.25 1260.49C623.238 1231.34 595.156 1207.68 560.579 1207.69C526.002 1207.7 497.939 1231.38 497.951 1260.52Z" fill="#F6F3EC"/>
<path fill-rule="evenodd" clip-rule="evenodd" d="M524.32 1499.02C524.332 1528.16 552.414 1551.82 586.991 1551.81C621.568 1551.8 649.631 1528.13 649.619 1498.98C649.607 1469.83 621.525 1446.18 586.948 1446.19C552.371 1446.2 524.308 1469.87 524.32 1499.02Z" fill="#F6F3EC"/>
<path d="M379.406 161.001C244.347 302.685 271.772 606.848 459.808 892.564" stroke="#F6F3EC" stroke-width="12.36" stroke-linecap="round"/>
<path fill-rule="evenodd" clip-rule="evenodd" d="M156.879 206.644C156.884 218.867 168.66 228.787 183.161 228.783C197.661 228.779 209.429 218.852 209.424 206.629C209.419 194.406 197.643 184.486 183.142 184.49C168.642 184.494 156.874 194.421 156.879 206.644Z" fill="#111111"/>
<path fill-rule="evenodd" clip-rule="evenodd" d="M87.967 392.726C87.972 404.949 99.748 414.869 114.249 414.865C128.749 414.861 140.517 404.934 140.512 392.711C140.507 380.488 128.731 370.568 114.23 370.572C99.73 370.576 87.962 380.503 87.967 392.726Z" fill="#111111"/>
<path fill-rule="evenodd" clip-rule="evenodd" d="M103.938 578.138C103.943 590.361 115.719 600.281 130.22 600.277C144.72 600.273 156.488 590.346 156.483 578.123C156.478 565.9 144.702 555.98 130.201 555.984C115.701 555.988 103.933 565.915 103.938 578.138Z" fill="#111111"/>
<path fill-rule="evenodd" clip-rule="evenodd" d="M238.035 472.478C238.047 501.625 266.129 525.281 300.706 525.271C335.283 525.261 363.346 501.589 363.334 472.442C363.322 443.295 335.24 419.639 300.663 419.649C266.086 419.659 238.023 443.331 238.035 472.478Z" fill="#F6F3EC"/>
<path fill-rule="evenodd" clip-rule="evenodd" d="M274.412 472.467C274.417 484.69 286.193 494.61 300.694 494.606C315.194 494.602 326.962 484.675 326.957 472.452C326.952 460.229 315.176 450.309 300.675 450.313C286.175 450.317 274.407 460.244 274.412 472.467Z" fill="#111111"/>
<path fill-rule="evenodd" clip-rule="evenodd" d="M469.558 737.889C469.57 767.036 497.652 790.692 532.229 790.682C566.806 790.672 594.869 767 594.857 737.853C594.845 708.706 566.763 685.05 532.186 685.06C497.609 685.07 469.546 708.742 469.558 737.889Z" fill="#F6F3EC"/>
<path fill-rule="evenodd" clip-rule="evenodd" d="M505.936 737.878C505.941 750.101 517.717 760.021 532.218 760.017C546.718 760.013 558.486 750.086 558.481 737.863C558.476 725.64 546.7 715.72 532.199 715.724C517.699 715.728 505.931 725.655 505.936 737.878Z" fill="#111111"/>
<path fill-rule="evenodd" clip-rule="evenodd" d="M166.665 768.641C166.67 780.864 178.446 790.784 192.947 790.78C207.447 790.776 219.215 780.849 219.21 768.626C219.205 756.403 207.429 746.483 192.928 746.487C178.428 746.491 166.66 756.418 166.665 768.641Z" fill="#111111"/>
<path fill-rule="evenodd" clip-rule="evenodd" d="M511.63 206.542C511.635 218.765 523.411 228.685 537.912 228.681C552.412 228.677 564.18 218.75 564.175 206.527C564.17 194.304 552.394 184.384 537.893 184.388C523.393 184.392 511.625 194.319 511.63 206.542Z" fill="#111111"/>
<path fill-rule="evenodd" clip-rule="evenodd" d="M601.408 392.577C601.413 404.8 613.189 414.72 627.69 414.716C642.19 414.712 653.958 404.785 653.953 392.562C653.948 380.339 642.172 370.419 627.671 370.423C613.171 370.427 601.403 380.354 601.408 392.577Z" fill="#111111"/>
<path fill-rule="evenodd" clip-rule="evenodd" d="M565.106 578.005C565.111 590.228 576.887 600.148 591.388 600.144C605.888 600.14 617.656 590.213 617.651 577.99C617.646 565.767 605.87 555.847 591.369 555.851C576.869 555.855 565.101 565.782 565.106 578.005Z" fill="#111111"/>
<path fill-rule="evenodd" clip-rule="evenodd" d="M203.255 1291.27C203.26 1303.5 215.036 1313.42 229.537 1313.41C244.037 1313.41 255.805 1303.48 255.8 1291.26C255.795 1279.04 244.019 1269.12 229.518 1269.12C215.018 1269.12 203.25 1279.05 203.255 1291.27Z" fill="#111111"/>
<path fill-rule="evenodd" clip-rule="evenodd" d="M265.99 1499.09C265.995 1511.31 277.771 1521.23 292.272 1521.23C306.772 1521.23 318.54 1511.3 318.535 1499.08C318.53 1486.85 306.754 1476.93 292.253 1476.94C277.753 1476.94 265.985 1486.87 265.99 1499.09Z" fill="#111111"/>
<path fill-rule="evenodd" clip-rule="evenodd" d="M534.328 1260.51C534.333 1272.74 546.109 1282.66 560.61 1282.65C575.11 1282.65 586.878 1272.72 586.873 1260.5C586.868 1248.28 575.092 1238.36 560.591 1238.36C546.091 1238.36 534.323 1248.29 534.328 1260.51Z" fill="#111111"/>
<path fill-rule="evenodd" clip-rule="evenodd" d="M560.698 1499.01C560.703 1511.23 572.479 1521.15 586.98 1521.14C601.48 1521.14 613.248 1511.21 613.243 1498.99C613.238 1486.77 601.462 1476.85 586.961 1476.85C572.461 1476.86 560.693 1486.78 560.698 1499.01Z" fill="#111111"/>
<path d="M619.541 785.496C277.832 920.134 460.381 1152.33 631.484 1203.11" stroke="#F6F3EC" stroke-width="14.12" stroke-linecap="round"/>
<path d="M171.665 1181.85C292.957 1139.28 223.326 876.552 86.8281 848.575" stroke="#F6F3EC" stroke-width="13.25" stroke-linecap="round"/>
</svg>
