<svg width="744" height="1692" viewBox="0 0 744 1692" fill="none" xmlns="http://www.w3.org/2000/svg">
<path d="M404.702 4.30024C422.071 8.07824 677.932 74.4552 726.016 343.437C762.311 546.472 742.024 732.572 661.136 854.363C588.328 986.308 543.838 1057.35 588.238 1206.25C628.602 1341.61 628.561 1446.51 543.639 1548C454.673 1656.25 369.775 1698.52 297.024 1690.04C175.77 1681.55 78.7934 1607.08 54.5964 1471.72C30.3974 1341.44 62.7724 1245.01 135.565 1151.98C208.361 1050.49 180.116 932.051 115.5 796.682C50.8845 661.314 -13.5756 516.899 2.49045 393.984C18.5564 271.069 130.685 92.2663 214.681 49.7583C214.681 49.7583 287.127 14.3073 317.051 4.98225C339.553 -2.03075 380.053 -1.06176 404.702 4.30024Z" fill="#111111"/>
<path fill-rule="evenodd" clip-rule="evenodd" d="M622.844 206.655C622.832 235.802 594.75 259.458 560.173 259.448C525.596 259.438 497.534 235.766 497.546 206.619C497.558 177.472 525.639 153.816 560.216 153.826C594.793 153.836 622.856 177.508 622.844 206.655Z" fill="#F6F3EC"/>
<path fill-rule="evenodd" clip-rule="evenodd" d="M691.757 392.736C691.745 421.883 663.664 445.539 629.087 445.529C594.51 445.519 566.446 421.847 566.458 392.7C566.47 363.553 594.553 339.897 629.13 339.907C663.707 339.917 691.769 363.589 691.757 392.736Z" fill="#F6F3EC"/>
<path fill-rule="evenodd" clip-rule="evenodd" d="M675.786 578.148C675.774 607.295 647.691 630.951 613.114 630.941C578.537 630.931 550.474 607.259 550.486 578.112C550.498 548.965 578.58 525.309 613.157 525.319C647.734 525.329 675.798 549.001 675.786 578.148Z" fill="#F6F3EC"/>
<path fill-rule="evenodd" clip-rule="evenodd" d="M613.058 768.651C613.046 797.798 584.965 821.454 550.388 821.444C515.811 821.434 487.747 797.762 487.759 768.615C487.771 739.468 515.854 715.812 550.431 715.822C585.008 715.832 613.07 739.504 613.058 768.651Z" fill="#F6F3EC"/>
<path fill-rule="evenodd" clip-rule="evenodd" d="M268.094 206.552C268.082 235.699 240 259.355 205.423 259.345C170.846 259.335 142.783 235.663 142.795 206.516C142.807 177.369 170.889 153.713 205.466 153.723C240.043 153.733 268.106 177.405 268.094 206.552Z" fill="#F6F3EC"/>
<path fill-rule="evenodd" clip-rule="evenodd" d="M178.315 392.588C178.303 421.735 150.221 445.391 115.644 445.381C81.0674 445.371 53.0045 421.699 53.0165 392.552C53.0285 363.405 81.1105 339.749 115.688 339.759C150.265 339.769 178.327 363.441 178.315 392.588Z" fill="#F6F3EC"/>
<path fill-rule="evenodd" clip-rule="evenodd" d="M214.617 578.015C214.605 607.162 186.523 630.818 151.946 630.808C117.369 630.798 89.3065 607.126 89.3185 577.979C89.3305 548.832 117.413 525.176 151.99 525.186C186.567 525.196 214.629 548.868 214.617 578.015Z" fill="#F6F3EC"/>
<path fill-rule="evenodd" clip-rule="evenodd" d="M576.468 1291.28C576.456 1320.43 548.374 1344.09 513.797 1344.08C479.22 1344.07 451.158 1320.39 451.17 1291.25C451.182 1262.1 479.263 1238.44 513.84 1238.45C548.417 1238.46 576.48 1262.14 576.468 1291.28Z" fill="#F6F3EC"/>
<path fill-rule="evenodd" clip-rule="evenodd" d="M513.735 1499.1C513.723 1528.25 485.64 1551.9 451.063 1551.89C416.486 1551.88 388.423 1528.21 388.435 1499.06C388.447 1469.92 416.53 1446.26 451.107 1446.27C485.684 1446.28 513.747 1469.95 513.735 1499.1Z" fill="#F6F3EC"/>
<path fill-rule="evenodd" clip-rule="evenodd" d="M245.396 1260.52C245.384 1289.67 217.301 1313.33 182.724 1313.32C148.147 1313.31 120.084 1289.63 120.096 1260.49C120.108 1231.34 148.19 1207.68 182.767 1207.69C217.344 1207.7 245.408 1231.38 245.396 1260.52Z" fill="#F6F3EC"/>
<path fill-rule="evenodd" clip-rule="evenodd" d="M219.026 1499.02C219.014 1528.16 190.932 1551.82 156.355 1551.81C121.778 1551.8 93.7154 1528.13 93.7274 1498.98C93.7394 1469.83 121.821 1446.18 156.398 1446.19C190.975 1446.2 219.038 1469.87 219.026 1499.02Z" fill="#F6F3EC"/>
<path d="M363.941 161.001C499 302.685 471.574 606.848 283.538 892.564" stroke="#F6F3EC" stroke-width="12.36" stroke-linecap="round"/>
<path fill-rule="evenodd" clip-rule="evenodd" d="M586.467 206.644C586.462 218.867 574.686 228.787 560.185 228.783C545.685 228.779 533.917 218.852 533.922 206.629C533.927 194.406 545.703 184.486 560.204 184.49C574.704 184.494 586.472 194.421 586.467 206.644Z" fill="#111111"/>
<path fill-rule="evenodd" clip-rule="evenodd" d="M655.38 392.726C655.375 404.949 643.599 414.869 629.098 414.865C614.598 414.861 602.829 404.934 602.834 392.711C602.839 380.488 614.616 370.568 629.117 370.572C643.617 370.576 655.385 380.503 655.38 392.726Z" fill="#111111"/>
<path fill-rule="evenodd" clip-rule="evenodd" d="M639.409 578.138C639.404 590.361 627.628 600.281 613.127 600.277C598.627 600.273 586.858 590.346 586.863 578.123C586.868 565.9 598.644 555.98 613.145 555.984C627.645 555.988 639.414 565.915 639.409 578.138Z" fill="#111111"/>
<path fill-rule="evenodd" clip-rule="evenodd" d="M505.311 472.478C505.299 501.625 477.218 525.281 442.641 525.271C408.064 525.261 380.001 501.589 380.013 472.442C380.025 443.295 408.106 419.639 442.683 419.649C477.26 419.659 505.323 443.331 505.311 472.478Z" fill="#F6F3EC"/>
<path fill-rule="evenodd" clip-rule="evenodd" d="M468.934 472.467C468.929 484.69 457.153 494.61 442.652 494.606C428.152 494.602 416.385 484.675 416.39 472.452C416.395 460.229 428.171 450.309 442.672 450.313C457.172 450.317 468.939 460.244 468.934 472.467Z" fill="#111111"/>
<path fill-rule="evenodd" clip-rule="evenodd" d="M273.788 737.889C273.776 767.036 245.694 790.692 211.117 790.682C176.54 790.672 148.478 767 148.49 737.853C148.502 708.706 176.584 685.05 211.161 685.06C245.738 685.07 273.8 708.742 273.788 737.889Z" fill="#F6F3EC"/>
<path fill-rule="evenodd" clip-rule="evenodd" d="M237.411 737.878C237.406 750.101 225.629 760.021 211.128 760.017C196.628 760.013 184.86 750.086 184.865 737.863C184.87 725.64 196.646 715.72 211.147 715.724C225.647 715.728 237.416 725.655 237.411 737.878Z" fill="#111111"/>
<path fill-rule="evenodd" clip-rule="evenodd" d="M576.682 768.641C576.677 780.864 564.901 790.784 550.4 790.78C535.9 790.776 524.131 780.849 524.136 768.626C524.141 756.403 535.918 746.483 550.419 746.487C564.919 746.491 576.687 756.418 576.682 768.641Z" fill="#111111"/>
<path fill-rule="evenodd" clip-rule="evenodd" d="M231.716 206.542C231.711 218.765 219.935 228.685 205.434 228.681C190.934 228.677 179.167 218.75 179.172 206.527C179.177 194.304 190.952 184.384 205.453 184.388C219.953 184.392 231.721 194.319 231.716 206.542Z" fill="#111111"/>
<path fill-rule="evenodd" clip-rule="evenodd" d="M141.938 392.577C141.933 404.8 130.157 414.72 115.656 414.716C101.156 414.712 89.3884 404.785 89.3934 392.562C89.3984 380.339 101.174 370.419 115.675 370.423C130.175 370.427 141.943 380.354 141.938 392.577Z" fill="#111111"/>
<path fill-rule="evenodd" clip-rule="evenodd" d="M178.24 578.005C178.235 590.228 166.459 600.148 151.958 600.144C137.458 600.14 125.69 590.213 125.695 577.99C125.7 565.767 137.476 555.847 151.977 555.851C166.477 555.855 178.245 565.782 178.24 578.005Z" fill="#111111"/>
<path fill-rule="evenodd" clip-rule="evenodd" d="M540.091 1291.27C540.086 1303.5 528.31 1313.42 513.809 1313.41C499.309 1313.41 487.542 1303.48 487.547 1291.26C487.552 1279.04 499.327 1269.12 513.828 1269.12C528.328 1269.12 540.096 1279.05 540.091 1291.27Z" fill="#111111"/>
<path fill-rule="evenodd" clip-rule="evenodd" d="M477.357 1499.09C477.352 1511.31 465.576 1521.23 451.075 1521.23C436.575 1521.23 424.806 1511.3 424.811 1499.08C424.816 1486.85 436.592 1476.93 451.093 1476.94C465.593 1476.94 477.362 1486.87 477.357 1499.09Z" fill="#111111"/>
<path fill-rule="evenodd" clip-rule="evenodd" d="M209.018 1260.51C209.013 1272.74 197.237 1282.66 182.736 1282.65C168.236 1282.65 156.469 1272.72 156.474 1260.5C156.479 1248.28 168.254 1238.36 182.755 1238.36C197.255 1238.36 209.023 1248.29 209.018 1260.51Z" fill="#111111"/>
<path fill-rule="evenodd" clip-rule="evenodd" d="M182.648 1499.01C182.643 1511.23 170.867 1521.15 156.366 1521.14C141.866 1521.14 130.099 1511.21 130.104 1498.99C130.109 1486.77 141.884 1476.85 156.385 1476.85C170.885 1476.86 182.653 1486.78 182.648 1499.01Z" fill="#111111"/>
<path d="M123.805 785.496C465.514 920.134 282.965 1152.33 111.862 1203.11" stroke="#F6F3EC" stroke-width="14.12" stroke-linecap="round"/>
<path d="M571.682 1181.85C450.39 1139.28 520.02 876.552 656.518 848.575" stroke="#F6F3EC" stroke-width="13.25" stroke-linecap="round"/>
</svg>
